# xmcd
#
# Track frame offsets: 
#        150
#        18725
#        35986
#        56516
#        71193
#        89294
#        108052
#        123337
#        137322
#        171139
#        190284
#        208196
#
# Disc length: 3010 seconds
#
# Revision: 1
# Processed by: cddbd v1.5.2PL0 Copyright (c) Steve Scherf et al.
# Submitted via: ExactAudioCopy v1.1
#
DISCID=ac0bc00c
DTITLE=Barry White - Icon
DYEAR=2010
DGENRE=Soul
TTITLE0=Love's Theme
TTITLE1=Can't Get Enough of Your Love, Babe
TTITLE2=You're The First, The Last, My Everything
TTITLE3=Honey Please, Can't Ya See
TTITLE4=Never, Never Gonna Give Ya Up
TTITLE5=I'm Gonna Love You Just A Little More, Baby
TTITLE6=It's Ecstasy When You Lay Down Next To Me
TTITLE7=I'm Qualified To Satisfy You
TTITLE8=Sha La La Means I Love You
TTITLE9=Let The Music Play
TTITLE10=Sho' You Right
TTITLE11=Practice What You Preach
EXTD=
EXTT0=
EXTT1=
EXTT2=
EXTT3=
EXTT4=
EXTT5=
EXTT6=
EXTT7=
EXTT8=
EXTT9=
EXTT10=
EXTT11=
PLAYORDER=
